<svg width="1144" height="517" viewBox="0 0 1144 517" xmlns="http://www.w3.org/2000/svg" xmlns:sketch="http://www.bohemiancoding.com/sketch/ns"><title>Slice 1</title><g sketch:type="MSPage" fill="none"><path d="M440 169.213l21.213-21.213-21.213-21.213-21.213 21.213 21.213 21.213z" fill="#D76766" sketch:type="MSShapeGroup"/><path d="M655 312.213l21.213-21.213-21.213-21.213-21.213 21.213 21.213 21.213z" fill="#fff" sketch:type="MSShapeGroup"/><path d="M893 236.213l21.213-21.213-21.213-21.213-21.213 21.213 21.213 21.213z" fill="#0D2543" sketch:type="MSShapeGroup"/><path d="M1086 404.213l21.213-21.213-21.213-21.213-21.213 21.213 21.213 21.213z" fill="#fff" sketch:type="MSShapeGroup"/><path d="M738 478.213l21.213-21.213-21.213-21.213-21.213 21.213 21.213 21.213z" fill="#F2CC74" sketch:type="MSShapeGroup"/><path d="M441 471.213l21.213-21.213-21.213-21.213-21.213 21.213 21.213 21.213z" fill="#D76766" sketch:type="MSShapeGroup"/><path d="M601 45.213l21.213-21.213-21.213-21.213-21.213 21.213 21.213 21.213zM33 349.213l21.213-21.213-21.213-21.213-21.213 21.213 21.213 21.213z" fill="#94C5B4" sketch:type="MSShapeGroup"/><path d="M128 86.213l21.213-21.213-21.213-21.213-21.213 21.213 21.213 21.213z" fill="#F2CC74" sketch:type="MSShapeGroup"/></g></svg>