<?xml version="1.0" encoding="UTF-8" standalone="no"?>
<svg width="1504px" height="611px" viewBox="0 0 1504 611" version="1.1" xmlns="http://www.w3.org/2000/svg" xmlns:xlink="http://www.w3.org/1999/xlink" xmlns:sketch="http://www.bohemiancoding.com/sketch/ns">
    <title>Slice 1</title>
    <description>Created with Sketch (http://www.bohemiancoding.com/sketch)</description>
    <defs></defs>
    <g id="Page-1" stroke="none" stroke-width="1" fill="none" fill-rule="evenodd" sketch:type="MSPage">
        <g id="Group" sketch:type="MSLayerGroup" transform="translate(31.000000, 59.000000)">
            <rect id="Rectangle-1" fill="#F2CC74" sketch:type="MSShapeGroup" transform="translate(790.000000, 200.000000) rotate(-45.000000) translate(-790.000000, -200.000000) " x="780" y="190" width="20" height="20"></rect>
            <rect id="Rectangle-1-copy" fill="#0D2543" sketch:type="MSShapeGroup" transform="translate(1156.000000, 80.000000) rotate(-45.000000) translate(-1156.000000, -80.000000) " x="1146" y="70" width="20" height="20"></rect>
            <rect id="Rectangle-1-copy-2" fill="#FFFFFF" sketch:type="MSShapeGroup" transform="translate(1348.000000, 288.000000) rotate(-45.000000) translate(-1348.000000, -288.000000) " x="1338" y="278" width="20" height="20"></rect>
            <rect id="Rectangle-1-copy" fill="#0D2543" sketch:type="MSShapeGroup" transform="translate(664.000000, 88.000000) rotate(-45.000000) translate(-664.000000, -88.000000) " x="654" y="78" width="20" height="20"></rect>
            <rect id="Rectangle-1-copy-2" fill="#FFFFFF" sketch:type="MSShapeGroup" transform="translate(407.000000, 201.000000) rotate(-45.000000) translate(-407.000000, -201.000000) " x="397" y="191" width="20" height="20"></rect>
            <rect id="Rectangle-1-copy-3" fill="#F2CC74" sketch:type="MSShapeGroup" transform="translate(160.000000, 383.000000) rotate(-45.000000) translate(-160.000000, -383.000000) " x="150" y="373" width="20" height="20"></rect>
            <rect id="Rectangle-1-copy-4" fill="#D76766" sketch:type="MSShapeGroup" transform="translate(14.000000, 308.000000) rotate(-45.000000) translate(-14.000000, -308.000000) " x="4" y="298" width="20" height="20"></rect>
            <rect id="Rectangle-1-copy-3" fill="#94C5B4" sketch:type="MSShapeGroup" transform="translate(353.000000, 14.000000) rotate(-45.000000) translate(-353.000000, -14.000000) " x="343" y="4" width="20" height="20"></rect>
            <rect id="Rectangle-1-copy-4" fill="#0D2543" sketch:type="MSShapeGroup" transform="translate(42.000000, 146.000000) rotate(-45.000000) translate(-42.000000, -146.000000) " x="32" y="136" width="20" height="20"></rect>
            <rect id="Rectangle-1-copy-4" fill="#D76766" sketch:type="MSShapeGroup" transform="translate(962.000000, 24.000000) rotate(-45.000000) translate(-962.000000, -24.000000) " x="952" y="14" width="20" height="20"></rect>
            <rect id="Rectangle-1-copy-5" fill="#D76766" sketch:type="MSShapeGroup" transform="translate(1139.000000, 260.000000) rotate(-45.000000) translate(-1139.000000, -260.000000) " x="1129" y="250" width="20" height="20"></rect>
            <rect id="Rectangle-1-copy-6" fill="#94C5B4" sketch:type="MSShapeGroup" transform="translate(877.000000, 327.000000) rotate(-45.000000) translate(-877.000000, -327.000000) " x="867" y="317" width="20" height="20"></rect>
            <rect id="Rectangle-1-copy-7" fill="#FFFFFF" sketch:type="MSShapeGroup" transform="translate(1108.000000, 419.000000) rotate(-45.000000) translate(-1108.000000, -419.000000) " x="1098" y="409" width="20" height="20"></rect>
            <rect id="Rectangle-1-copy-7" fill="#FFFFFF" sketch:type="MSShapeGroup" transform="translate(662.000000, 359.000000) rotate(-45.000000) translate(-662.000000, -359.000000) " x="652" y="349" width="20" height="20"></rect>
        </g>
    </g>
</svg>