<svg width="1504" height="611" viewBox="0 0 1504 611" xmlns="http://www.w3.org/2000/svg" xmlns:sketch="http://www.bohemiancoding.com/sketch/ns"><title>Slice 1</title><g sketch:type="MSLayerGroup" fill="none"><path fill="#F2CC74" sketch:type="MSShapeGroup" d="M806.86 259l14.14-14.14 14.14 14.14-14.14 14.14z"/><path id="Rectangle-1-copy" fill="#0D2543" sketch:type="MSShapeGroup" d="M1172.86 139l14.14-14.14 14.14 14.14-14.14 14.14z"/><path id="Rectangle-1-copy-2" fill="#fff" sketch:type="MSShapeGroup" d="M1364.86 347l14.14-14.14 14.14 14.14-14.14 14.14z"/><path fill="#0D2543" sketch:type="MSShapeGroup" d="M680.86 147l14.14-14.14 14.14 14.14-14.14 14.14z"/><path fill="#fff" sketch:type="MSShapeGroup" d="M423.86 260l14.14-14.14 14.14 14.14-14.14 14.14z"/><path id="Rectangle-1-copy-3" fill="#F2CC74" sketch:type="MSShapeGroup" d="M176.86 442l14.14-14.14 14.14 14.14-14.14 14.14z"/><path id="Rectangle-1-copy-4" fill="#D76766" sketch:type="MSShapeGroup" d="M30.86 367l14.14-14.14 14.14 14.14-14.14 14.14z"/><path fill="#94C5B4" sketch:type="MSShapeGroup" d="M369.86 73l14.14-14.14 14.14 14.14-14.14 14.14z"/><path id="Rectangle-1-copy-4" fill="#0D2543" sketch:type="MSShapeGroup" d="M58.86 205l14.14-14.14 14.14 14.14-14.14 14.14z"/><path fill="#D76766" sketch:type="MSShapeGroup" d="M978.86 83l14.14-14.14 14.14 14.14-14.14 14.14z"/><path fill="#D76766" sketch:type="MSShapeGroup" d="M1155.86 319l14.14-14.14 14.14 14.14-14.14 14.14z"/><path fill="#94C5B4" sketch:type="MSShapeGroup" d="M893.86 386l14.14-14.14 14.14 14.14-14.14 14.14z"/><path fill="#fff" sketch:type="MSShapeGroup" d="M1124.86 478l14.14-14.14 14.14 14.14-14.14 14.14zM678.86 418l14.14-14.14 14.14 14.14-14.14 14.14z"/></g></svg>